# xmcd
#
# Track frame offsets: 
#        150
#        11088
#        28899
#        43910
#        61965
#        78749
#        100476
#        116533
#        148152
#        169095
#        187029
#        202673
#        227170
#        243198
#
# Disc length: 3370 seconds
#
# Revision: 0
# Processed by: cddbd v1.5.2PL0 Copyright (c) Steve Scherf et al.
# Submitted via: ExactAudioCopy v1.3
#
DISCID=c40d280e
DTITLE=Gaetano Letizia - Resurrection
DYEAR=2016
DGENRE=Blues Rock
TTITLE0=Resurrection
TTITLE1=Old Guitar Player
TTITLE2=Hot and Cold Woman
TTITLE3=Standing By The Door
TTITLE4=Nothin' To Me
TTITLE5=Three Hearts
TTITLE6=Purgatory
TTITLE7=Mr. Bad Luck
TTITLE8=Sylvester Loved The Ladies
TTITLE9=Laugh In The Dark
TTITLE10=Have A Little Party
TTITLE11=Talk To Yourself
TTITLE12=Heaven Or Hell
TTITLE13=Ascension
EXTD=
EXTT0=
EXTT1=
EXTT2=
EXTT3=
EXTT4=
EXTT5=
EXTT6=
EXTT7=
EXTT8=
EXTT9=
EXTT10=
EXTT11=
EXTT12=
EXTT13=
PLAYORDER=
